<svg width="20" height="20" viewBox="0 0 20 20" fill="none" xmlns="http://www.w3.org/2000/svg">
<path d="M5.62495 3.75001C5.62495 3.40483 5.90477 3.12501 6.24995 3.12501C6.59513 3.12501 6.87495 3.40483 6.87495 3.75001V14.7412L8.30806 13.3081C8.55214 13.064 8.94777 13.064 9.19185 13.3081C9.43593 13.5522 9.43593 13.9478 9.19185 14.1919L6.69185 16.6919C6.44777 16.936 6.05214 16.936 5.80806 16.6919L3.30806 14.1919C3.06398 13.9478 3.06398 13.5522 3.30806 13.3081C3.55214 13.064 3.94777 13.064 4.19185 13.3081L5.62495 14.7412V3.75001ZM13.125 16.25V5.2588L11.6918 6.6919C11.4478 6.93598 11.0521 6.93598 10.8081 6.6919C10.564 6.44782 10.564 6.05219 10.8081 5.80811L13.3081 3.30811L13.3553 3.26498C13.6007 3.06472 13.963 3.07927 14.1918 3.30811L16.6918 5.80811C16.9359 6.05219 16.9359 6.44782 16.6918 6.6919C16.4478 6.93598 16.0521 6.93598 15.8081 6.6919L14.375 5.2588V16.25C14.375 16.5952 14.0951 16.875 13.75 16.875C13.4048 16.875 13.125 16.5952 13.125 16.25Z" fill="#0065DE"/>
</svg>
