<svg width="24" height="24" viewBox="0 0 24 24" fill="none" xmlns="http://www.w3.org/2000/svg">
<path d="M18.75 3C19.1642 3 19.5 3.33579 19.5 3.75C19.5 4.16421 19.1642 4.5 18.75 4.5H16.0049L15.8076 4.50879C15.3511 4.5498 14.9158 4.72961 14.5615 5.02539C14.1568 5.36347 13.8834 5.83285 13.7881 6.35156L12.8984 11.25H17.25C17.6642 11.25 18 11.5858 18 12C18 12.4142 17.6642 12.75 17.25 12.75H12.626L11.6875 17.918V17.9199L10.9814 17.79L10.9492 17.7842L11.6875 17.9199C11.5289 18.7832 11.0731 19.5634 10.3994 20.126C9.72573 20.6884 8.87663 20.9979 7.99902 21H5.25C4.83579 21 4.5 20.6642 4.5 20.25C4.5 19.8358 4.83579 19.5 5.25 19.5H7.99512C8.52266 19.4988 9.03352 19.3127 9.43848 18.9746C9.84324 18.6365 10.1166 18.1672 10.2119 17.6484L11.1016 12.75H6.75C6.33579 12.75 6 12.4142 6 12C6 11.5858 6.33579 11.25 6.75 11.25H11.374L12.3125 6.08203V6.08008L13.0176 6.20898L13.0498 6.21582L12.3125 6.08008C12.4711 5.21683 12.9269 4.43657 13.6006 3.87402C14.2743 3.31155 15.1234 3.00207 16.001 3H18.75Z" fill="#505D79"/>
</svg>
