<svg width="24" height="24" viewBox="0 0 24 24" fill="none" xmlns="http://www.w3.org/2000/svg">
<path d="M20.25 12.75L5.56054 12.75L11.0303 18.2197C11.3232 18.5126 11.3232 18.9874 11.0303 19.2803C10.7374 19.5732 10.2626 19.5732 9.96972 19.2803L3.21972 12.5303L3.16796 12.4736C2.92765 12.179 2.94512 11.7443 3.21972 11.4697L9.96972 4.71972C10.2626 4.42683 10.7374 4.42683 11.0303 4.71972C11.3232 5.01261 11.3232 5.48738 11.0303 5.78027L5.56054 11.25L20.25 11.25C20.6642 11.25 21 11.5858 21 12C21 12.4142 20.6642 12.75 20.25 12.75Z" fill="#101319"/>
</svg>
