<svg width="24" height="24" viewBox="0 0 24 24" fill="none" xmlns="http://www.w3.org/2000/svg">
<path d="M14.8003 2.14515C15.3895 1.66467 16.259 1.69951 16.8081 2.24866L21.7476 7.18812C22.3331 7.77387 22.3331 8.72349 21.7476 9.30921L9.31103 21.7457C8.72531 22.3313 7.7757 22.3312 7.18994 21.7457L2.25049 16.8063C1.66475 16.2205 1.66484 15.271 2.25049 14.6852L14.687 2.24866L14.8003 2.14515ZM13.4341 5.62269L15.9058 8.09437C16.1985 8.38712 16.1982 8.86201 15.9058 9.15491C15.6129 9.4478 15.1371 9.4478 14.8442 9.15491L12.3726 6.68323L10.0591 8.99769L12.5308 11.4694C12.8235 11.7621 12.8232 12.237 12.5308 12.5299C12.2379 12.8228 11.7621 12.8228 11.4692 12.5299L8.99756 10.0582L6.68408 12.3727L9.15576 14.8444C9.44845 15.1371 9.44821 15.612 9.15576 15.9049C8.86287 16.1978 8.38713 16.1978 8.09424 15.9049L5.62256 13.4332L3.31103 15.7457L8.25049 20.6852L20.687 8.24866L15.7476 3.30921L13.4341 5.62269Z" fill="#505D79"/>
</svg>
