<svg width="24" height="24" viewBox="0 0 24 24" fill="none" xmlns="http://www.w3.org/2000/svg">
<path d="M20.25 12C20.25 7.44365 16.5563 3.75 12 3.75C7.44365 3.75 3.75 7.44365 3.75 12C3.75 16.5563 7.44365 20.25 12 20.25C16.5563 20.25 20.25 16.5563 20.25 12ZM12.042 8.29199C12.3349 7.9991 12.8096 7.9991 13.1025 8.29199L16.2803 11.4697C16.5732 11.7626 16.5732 12.2374 16.2803 12.5303L13.1025 15.708C12.8096 16.0009 12.3349 16.0009 12.042 15.708C11.7491 15.4151 11.7491 14.9404 12.042 14.6475L13.9395 12.75H8.25C7.83579 12.75 7.5 12.4142 7.5 12C7.5 11.5858 7.83579 11.25 8.25 11.25H13.9395L12.042 9.35254C11.7491 9.05965 11.7491 8.58489 12.042 8.29199ZM21.75 12C21.75 17.3848 17.3848 21.75 12 21.75C6.61522 21.75 2.25 17.3848 2.25 12C2.25 6.61522 6.61522 2.25 12 2.25C17.3848 2.25 21.75 6.61522 21.75 12Z" fill="#505D79"/>
</svg>
