<svg width="24" height="24" viewBox="0 0 24 24" fill="none" xmlns="http://www.w3.org/2000/svg">
<path d="M17.3252 5.21122C16.9225 1.20649 9.43769 3.54258 5.74565 5.21122C5.41002 6.04552 4.53737 7.79755 3.73181 8.13128C2.92625 8.465 3.39616 9.93896 3.73181 10.6342C4.40309 12.1638 5.34288 14.9727 3.73181 13.9715C1.71797 12.72 4.23527 15.223 6.75257 19.3946C9.26987 23.5662 14.3045 18.1431 18.8356 19.3946C23.3667 20.646 18.8356 15.223 20.346 12.72C21.8564 10.2171 20.346 10.2171 19.8425 10.6342C19.3391 11.0514 17.8287 10.2171 17.3252 5.21122Z" stroke="#1C7ED6" stroke-width="1.5"/>
<path d="M13.4387 10.5046L10.5046 13.4387" stroke="#A4CBEF" stroke-width="1.5" stroke-linecap="round"/>
<path d="M13.6167 13.6167L10.5047 10.5047" stroke="#A4CBEF" stroke-width="1.5" stroke-linecap="round"/>
</svg>
