<svg width="24" height="24" viewBox="0 0 24 24" fill="none" xmlns="http://www.w3.org/2000/svg">
<path d="M16.0264 3.91796C16.3209 3.67765 16.7557 3.69512 17.0303 3.96972L21.5303 8.46972C21.8232 8.76261 21.8232 9.23737 21.5303 9.53027C21.2374 9.82316 20.7626 9.82316 20.4697 9.53027L17.25 6.31054V18C17.25 18.4142 16.9142 18.75 16.5 18.75H3C2.58579 18.75 2.25 18.4142 2.25 18C2.25 17.5858 2.58579 17.25 3 17.25H15.75V6.31054L12.5303 9.53027C12.2374 9.82316 11.7626 9.82316 11.4697 9.53027C11.1768 9.23737 11.1768 8.76261 11.4697 8.46972L15.9697 3.96972L16.0264 3.91796Z" fill="#505D79"/>
</svg>
