<svg width="24" height="24" viewBox="0 0 24 24" fill="none" xmlns="http://www.w3.org/2000/svg">
<path d="M19.6916 19.6898C21.3025 18.0789 19.1656 13.3301 14.9186 9.08319C10.6717 4.83624 5.92293 2.69931 4.31202 4.31022C2.70111 5.92113 4.83804 10.6699 9.08499 14.9168C13.3319 19.1638 18.0807 21.3007 19.6916 19.6898Z" stroke="#FCC29C" stroke-width="1.5" stroke-linecap="round" stroke-linejoin="round"/>
<path d="M14.9186 14.9168C19.1656 10.6699 21.3025 5.92113 19.6916 4.31022C18.0807 2.69931 13.3319 4.83624 9.08499 9.08319C4.83804 13.3301 2.70111 18.0789 4.31202 19.6898C5.92293 21.3007 10.6717 19.1638 14.9186 14.9168Z" stroke="#F76707" stroke-width="1.5" stroke-linecap="round" stroke-linejoin="round"/>
<path d="M12 13.125C12.6213 13.125 13.125 12.6213 13.125 12C13.125 11.3787 12.6213 10.875 12 10.875C11.3787 10.875 10.875 11.3787 10.875 12C10.875 12.6213 11.3787 13.125 12 13.125Z" fill="#F76707"/>
</svg>
