<svg width="24" height="24" viewBox="0 0 24 24" fill="none" xmlns="http://www.w3.org/2000/svg">
<path fill-rule="evenodd" clip-rule="evenodd" d="M15.8177 4.18154C14.6487 3.37967 13.2569 2.96621 11.8397 2.99981C8.18223 3.08408 5.23313 6.13091 5.25001 9.79344L5.25002 9.79444C5.25334 10.8117 5.48814 11.8148 5.93662 12.7278C6.38509 13.6408 7.03548 14.4398 7.83852 15.0642L7.84227 15.0671C8.20036 15.3492 8.49037 15.7083 8.69078 16.1178C8.8912 16.5272 8.99688 16.9765 9 17.4324L9.00004 17.4375L9.00002 18H11.25V13.8107L8.46969 11.0304C8.1768 10.7375 8.1768 10.2626 8.46969 9.96969C8.76258 9.6768 9.23746 9.6768 9.53035 9.96969L12 12.4394L14.4697 9.96969C14.7626 9.6768 15.2375 9.6768 15.5303 9.96969C15.8232 10.2626 15.8232 10.7375 15.5303 11.0304L12.75 13.8107V18H15L15 17.4361C15.0009 16.9758 15.107 16.5219 15.3103 16.1089C15.513 15.6969 15.8071 15.3366 16.1701 15.0554C17.2841 14.1801 18.0944 12.9765 18.4863 11.615C18.8784 10.2527 18.8316 8.80147 18.3527 7.46723C17.8737 6.13298 16.9868 4.98341 15.8177 4.18154ZM9.00002 19.5C8.6022 19.5 8.22066 19.342 7.93936 19.0607C7.65805 18.7794 7.50002 18.3978 7.50002 18V17.4403C7.4981 17.2104 7.44462 16.9838 7.34352 16.7772C7.24238 16.5706 7.09616 16.3893 6.91564 16.2467C5.93389 15.4828 5.13871 14.5056 4.59027 13.3891C4.04144 12.2718 3.7541 11.0442 3.75002 9.79935L4.50002 9.7969L3.75003 9.80035C3.75003 9.80002 3.75002 9.79968 3.75002 9.79935C3.72994 5.32499 7.32462 1.60372 11.8041 1.50023C13.5361 1.45928 15.2375 1.9646 16.6662 2.94456C18.095 3.92463 19.179 5.32966 19.7644 6.96041C20.3499 8.59115 20.407 10.3648 19.9278 12.0299C19.4485 13.6949 18.4572 15.1668 17.0944 16.2368L17.09 16.2403C16.9068 16.3819 16.7583 16.5635 16.6561 16.7713C16.5539 16.9789 16.5005 17.2071 16.5 17.4385C16.5 17.4384 16.5 17.4387 16.5 17.4385V18C16.5 18.3978 16.342 18.7794 16.0607 19.0607C15.7794 19.342 15.3978 19.5 15 19.5H9.00002ZM7.50002 21.75C7.50002 21.3358 7.8358 21 8.25002 21H15.75C16.1642 21 16.5 21.3358 16.5 21.75C16.5 22.1642 16.1642 22.5 15.75 22.5H8.25002C7.8358 22.5 7.50002 22.1642 7.50002 21.75Z" fill="#505D79"/>
</svg>
