<svg width="137" height="36" viewBox="0 0 137 36" fill="none" xmlns="http://www.w3.org/2000/svg">
<path d="M12 0.5H125C131.351 0.5 136.5 5.64873 136.5 12V24C136.5 30.3513 131.351 35.5 125 35.5H12C5.64873 35.5 0.5 30.3513 0.5 24V12C0.5 5.64873 5.64873 0.5 12 0.5Z" fill="white"/>
<path d="M12 0.5H125C131.351 0.5 136.5 5.64873 136.5 12V24C136.5 30.3513 131.351 35.5 125 35.5H12C5.64873 35.5 0.5 30.3513 0.5 24V12C0.5 5.64873 5.64873 0.5 12 0.5Z" stroke="url(#paint0_linear_0_559)"/>
<path d="M13.5568 24L10.3295 12.3636H12.1761L14.4432 21.375H14.5511L16.9091 12.3636H18.7386L21.0966 21.3807H21.2045L23.4659 12.3636H25.3182L22.0852 24H20.3182L17.8693 15.2841H17.7784L15.3295 24H13.5568ZM29.6847 24.1761C28.8248 24.1761 28.0843 23.9924 27.4631 23.625C26.8456 23.2538 26.3684 22.733 26.0312 22.0625C25.6979 21.3883 25.5312 20.5985 25.5312 19.6932C25.5312 18.7992 25.6979 18.0114 26.0312 17.3295C26.3684 16.6477 26.8381 16.1155 27.4403 15.733C28.0464 15.3504 28.7547 15.1591 29.5653 15.1591C30.0578 15.1591 30.535 15.2405 30.9972 15.4034C31.4593 15.5663 31.8741 15.822 32.2415 16.1705C32.6089 16.5189 32.8987 16.9716 33.1108 17.5284C33.3229 18.0814 33.429 18.7538 33.429 19.5455V20.1477H26.4915V18.875H31.7642C31.7642 18.428 31.6733 18.0322 31.4915 17.6875C31.3097 17.339 31.054 17.0644 30.7244 16.8636C30.3987 16.6629 30.0161 16.5625 29.5767 16.5625C29.0994 16.5625 28.6828 16.6799 28.3267 16.9148C27.9744 17.1458 27.7017 17.4489 27.5085 17.8239C27.3191 18.1951 27.2244 18.5985 27.2244 19.0341V20.0284C27.2244 20.6117 27.3267 21.108 27.5312 21.517C27.7396 21.9261 28.0294 22.2386 28.4006 22.4545C28.7718 22.6667 29.2055 22.7727 29.7017 22.7727C30.0237 22.7727 30.3172 22.7273 30.5824 22.6364C30.8475 22.5417 31.0767 22.4015 31.2699 22.2159C31.4631 22.0303 31.6108 21.8011 31.7131 21.5284L33.321 21.8182C33.1922 22.2917 32.9612 22.7064 32.6278 23.0625C32.2983 23.4148 31.8835 23.6894 31.3835 23.8864C30.8873 24.0795 30.321 24.1761 29.6847 24.1761ZM37.8537 24.1932C37.3007 24.1932 36.8007 24.0909 36.3537 23.8864C35.9067 23.678 35.5526 23.3769 35.2912 22.983C35.0336 22.589 34.9048 22.1061 34.9048 21.5341C34.9048 21.0417 34.9995 20.6364 35.1889 20.3182C35.3783 20 35.634 19.7481 35.956 19.5625C36.2779 19.3769 36.6378 19.2367 37.0355 19.142C37.4332 19.0473 37.8385 18.9754 38.2514 18.9261C38.7741 18.8655 39.1984 18.8163 39.5241 18.7784C39.8499 18.7367 40.0866 18.6705 40.2344 18.5795C40.3821 18.4886 40.456 18.3409 40.456 18.1364V18.0966C40.456 17.6004 40.3158 17.2159 40.0355 16.9432C39.759 16.6705 39.3461 16.5341 38.7969 16.5341C38.2249 16.5341 37.7741 16.661 37.4446 16.9148C37.1188 17.1648 36.8935 17.4432 36.7685 17.75L35.1719 17.3864C35.3613 16.8561 35.6378 16.428 36.0014 16.1023C36.3688 15.7727 36.7912 15.5341 37.2685 15.3864C37.7457 15.2348 38.2476 15.1591 38.7741 15.1591C39.1226 15.1591 39.492 15.2008 39.8821 15.2841C40.276 15.3636 40.6435 15.5114 40.9844 15.7273C41.3291 15.9432 41.6113 16.2519 41.831 16.6534C42.0507 17.0511 42.1605 17.5682 42.1605 18.2045V24H40.5014V22.8068H40.4332C40.3234 23.0265 40.1586 23.2424 39.9389 23.4545C39.7192 23.6667 39.437 23.8428 39.0923 23.983C38.7476 24.1231 38.3348 24.1932 37.8537 24.1932ZM38.223 22.8295C38.6927 22.8295 39.0942 22.7367 39.4276 22.5511C39.7647 22.3655 40.0204 22.1231 40.1946 21.8239C40.3726 21.5208 40.4616 21.197 40.4616 20.8523V19.7273C40.401 19.7879 40.2836 19.8447 40.1094 19.8977C39.9389 19.947 39.7438 19.9905 39.5241 20.0284C39.3045 20.0625 39.0904 20.0947 38.8821 20.125C38.6738 20.1515 38.4995 20.1742 38.3594 20.1932C38.0298 20.2348 37.7287 20.3049 37.456 20.4034C37.187 20.5019 36.9711 20.6439 36.8082 20.8295C36.6491 21.0114 36.5696 21.2538 36.5696 21.5568C36.5696 21.9773 36.7249 22.2955 37.0355 22.5114C37.3461 22.7235 37.742 22.8295 38.223 22.8295ZM45.9858 21.0398L45.9744 18.9659H46.2699L49.7472 15.2727H51.7812L47.8153 19.4773H47.5483L45.9858 21.0398ZM44.4233 24V12.3636H46.1222V24H44.4233ZM49.9347 24L46.8097 19.8523L47.9801 18.6648L52.0199 24H49.9347ZM67.3651 16.1477H65.5923C65.5241 15.7689 65.3973 15.4356 65.2116 15.1477C65.026 14.8598 64.7988 14.6155 64.5298 14.4148C64.2609 14.214 63.9598 14.0625 63.6264 13.9602C63.2969 13.858 62.9465 13.8068 62.5753 13.8068C61.9048 13.8068 61.3045 13.9754 60.7741 14.3125C60.2476 14.6496 59.831 15.1439 59.5241 15.7955C59.2211 16.447 59.0696 17.2424 59.0696 18.1818C59.0696 19.1288 59.2211 19.928 59.5241 20.5795C59.831 21.2311 60.2495 21.7235 60.7798 22.0568C61.3101 22.3902 61.9067 22.5568 62.5696 22.5568C62.937 22.5568 63.2855 22.5076 63.6151 22.4091C63.9484 22.3068 64.2495 22.1572 64.5185 21.9602C64.7874 21.7633 65.0147 21.5227 65.2003 21.2386C65.3897 20.9508 65.5204 20.6212 65.5923 20.25L67.3651 20.2557C67.2704 20.8277 67.0866 21.3542 66.8139 21.8352C66.545 22.3125 66.1984 22.7254 65.7741 23.0739C65.3537 23.4186 64.8726 23.6856 64.331 23.875C63.7893 24.0644 63.1984 24.1591 62.5582 24.1591C61.5507 24.1591 60.6529 23.9205 59.8651 23.4432C59.0772 22.9621 58.456 22.2746 58.0014 21.3807C57.5507 20.4867 57.3253 19.4205 57.3253 18.1818C57.3253 16.9394 57.5526 15.8731 58.0071 14.983C58.4616 14.089 59.0829 13.4034 59.8707 12.9261C60.6586 12.4451 61.5545 12.2045 62.5582 12.2045C63.1757 12.2045 63.7514 12.2936 64.2855 12.4716C64.8234 12.6458 65.3063 12.9034 65.7344 13.2443C66.1624 13.5814 66.5166 13.9943 66.7969 14.483C67.0772 14.9678 67.2666 15.5227 67.3651 16.1477ZM71.0284 18.8182V24H69.3295V12.3636H71.0057V16.6932H71.1136C71.3182 16.2235 71.6307 15.8504 72.0511 15.5739C72.4716 15.2973 73.0208 15.1591 73.6989 15.1591C74.2973 15.1591 74.8201 15.2822 75.267 15.5284C75.7178 15.7746 76.0663 16.142 76.3125 16.6307C76.5625 17.1155 76.6875 17.7216 76.6875 18.4489V24H74.9886V18.6534C74.9886 18.0133 74.8239 17.517 74.4943 17.1648C74.1648 16.8087 73.7064 16.6307 73.1193 16.6307C72.7178 16.6307 72.358 16.7159 72.0398 16.8864C71.7254 17.0568 71.4773 17.3068 71.2955 17.6364C71.1174 17.9621 71.0284 18.3561 71.0284 18.8182ZM81.4943 24.1932C80.9413 24.1932 80.4413 24.0909 79.9943 23.8864C79.5473 23.678 79.1932 23.3769 78.9318 22.983C78.6742 22.589 78.5455 22.1061 78.5455 21.5341C78.5455 21.0417 78.6402 20.6364 78.8295 20.3182C79.0189 20 79.2746 19.7481 79.5966 19.5625C79.9186 19.3769 80.2784 19.2367 80.6761 19.142C81.0739 19.0473 81.4792 18.9754 81.892 18.9261C82.4148 18.8655 82.839 18.8163 83.1648 18.7784C83.4905 18.7367 83.7273 18.6705 83.875 18.5795C84.0227 18.4886 84.0966 18.3409 84.0966 18.1364V18.0966C84.0966 17.6004 83.9564 17.2159 83.6761 16.9432C83.3996 16.6705 82.9867 16.5341 82.4375 16.5341C81.8655 16.5341 81.4148 16.661 81.0852 16.9148C80.7595 17.1648 80.5341 17.4432 80.4091 17.75L78.8125 17.3864C79.0019 16.8561 79.2784 16.428 79.642 16.1023C80.0095 15.7727 80.4318 15.5341 80.9091 15.3864C81.3864 15.2348 81.8883 15.1591 82.4148 15.1591C82.7633 15.1591 83.1326 15.2008 83.5227 15.2841C83.9167 15.3636 84.2841 15.5114 84.625 15.7273C84.9697 15.9432 85.2519 16.2519 85.4716 16.6534C85.6913 17.0511 85.8011 17.5682 85.8011 18.2045V24H84.142V22.8068H84.0739C83.964 23.0265 83.7992 23.2424 83.5795 23.4545C83.3598 23.6667 83.0777 23.8428 82.733 23.983C82.3883 24.1231 81.9754 24.1932 81.4943 24.1932ZM81.8636 22.8295C82.3333 22.8295 82.7348 22.7367 83.0682 22.5511C83.4053 22.3655 83.661 22.1231 83.8352 21.8239C84.0133 21.5208 84.1023 21.197 84.1023 20.8523V19.7273C84.0417 19.7879 83.9242 19.8447 83.75 19.8977C83.5795 19.947 83.3845 19.9905 83.1648 20.0284C82.9451 20.0625 82.7311 20.0947 82.5227 20.125C82.3144 20.1515 82.1402 20.1742 82 20.1932C81.6705 20.2348 81.3693 20.3049 81.0966 20.4034C80.8277 20.5019 80.6117 20.6439 80.4489 20.8295C80.2898 21.0114 80.2102 21.2538 80.2102 21.5568C80.2102 21.9773 80.3655 22.2955 80.6761 22.5114C80.9867 22.7235 81.3826 22.8295 81.8636 22.8295ZM88.0639 27.2727V15.2727H89.723V16.6875H89.8651C89.9635 16.5057 90.1056 16.2955 90.2912 16.0568C90.4768 15.8182 90.7344 15.6098 91.0639 15.4318C91.3935 15.25 91.8291 15.1591 92.3707 15.1591C93.0753 15.1591 93.7041 15.3371 94.2571 15.6932C94.8101 16.0492 95.2438 16.5625 95.5582 17.233C95.8764 17.9034 96.0355 18.7102 96.0355 19.6534C96.0355 20.5966 95.8783 21.4053 95.5639 22.0795C95.2495 22.75 94.8177 23.267 94.2685 23.6307C93.7192 23.9905 93.0923 24.1705 92.3878 24.1705C91.8575 24.1705 91.4238 24.0814 91.0866 23.9034C90.7533 23.7254 90.492 23.517 90.3026 23.2784C90.1132 23.0398 89.9673 22.8277 89.8651 22.642H89.7628V27.2727H88.0639ZM89.7287 19.6364C89.7287 20.25 89.8177 20.7879 89.9957 21.25C90.1738 21.7121 90.4313 22.0739 90.7685 22.3352C91.1056 22.5928 91.5185 22.7216 92.0071 22.7216C92.5147 22.7216 92.9389 22.5871 93.2798 22.3182C93.6207 22.0455 93.8783 21.6761 94.0526 21.2102C94.2306 20.7443 94.3196 20.2197 94.3196 19.6364C94.3196 19.0606 94.2325 18.5436 94.0582 18.0852C93.8878 17.6269 93.6302 17.2652 93.2855 17C92.9446 16.7348 92.5185 16.6023 92.0071 16.6023C91.5147 16.6023 91.098 16.7292 90.7571 16.983C90.42 17.2367 90.1643 17.5909 89.9901 18.0455C89.8158 18.5 89.7287 19.0303 89.7287 19.6364ZM102.013 15.2727V16.6364H97.2457V15.2727H102.013ZM98.5241 13.1818H100.223V21.4375C100.223 21.767 100.272 22.0152 100.371 22.1818C100.469 22.3447 100.596 22.4564 100.751 22.517C100.911 22.5739 101.083 22.6023 101.268 22.6023C101.405 22.6023 101.524 22.5928 101.626 22.5739C101.729 22.5549 101.808 22.5398 101.865 22.5284L102.172 23.9318C102.073 23.9697 101.933 24.0076 101.751 24.0455C101.57 24.0871 101.342 24.1098 101.07 24.1136C100.623 24.1212 100.206 24.0417 99.8196 23.875C99.4332 23.7083 99.1207 23.4508 98.8821 23.1023C98.6435 22.7538 98.5241 22.3163 98.5241 21.7898V13.1818ZM107.56 24.1761C106.7 24.1761 105.959 23.9924 105.338 23.625C104.721 23.2538 104.243 22.733 103.906 22.0625C103.573 21.3883 103.406 20.5985 103.406 19.6932C103.406 18.7992 103.573 18.0114 103.906 17.3295C104.243 16.6477 104.713 16.1155 105.315 15.733C105.921 15.3504 106.63 15.1591 107.44 15.1591C107.933 15.1591 108.41 15.2405 108.872 15.4034C109.334 15.5663 109.749 15.822 110.116 16.1705C110.484 16.5189 110.774 16.9716 110.986 17.5284C111.198 18.0814 111.304 18.7538 111.304 19.5455V20.1477H104.366V18.875H109.639C109.639 18.428 109.548 18.0322 109.366 17.6875C109.185 17.339 108.929 17.0644 108.599 16.8636C108.274 16.6629 107.891 16.5625 107.452 16.5625C106.974 16.5625 106.558 16.6799 106.202 16.9148C105.849 17.1458 105.577 17.4489 105.384 17.8239C105.194 18.1951 105.099 18.5985 105.099 19.0341V20.0284C105.099 20.6117 105.202 21.108 105.406 21.517C105.615 21.9261 105.904 22.2386 106.276 22.4545C106.647 22.6667 107.08 22.7727 107.577 22.7727C107.899 22.7727 108.192 22.7273 108.457 22.6364C108.723 22.5417 108.952 22.4015 109.145 22.2159C109.338 22.0303 109.486 21.8011 109.588 21.5284L111.196 21.8182C111.067 22.2917 110.836 22.7064 110.503 23.0625C110.173 23.4148 109.759 23.6894 109.259 23.8864C108.762 24.0795 108.196 24.1761 107.56 24.1761ZM113.189 24V15.2727H114.831V16.6591H114.922C115.081 16.1894 115.361 15.8201 115.763 15.5511C116.168 15.2784 116.626 15.142 117.138 15.142C117.244 15.142 117.369 15.1458 117.513 15.1534C117.661 15.161 117.776 15.1705 117.859 15.1818V16.8068C117.791 16.7879 117.67 16.767 117.496 16.7443C117.321 16.7178 117.147 16.7045 116.973 16.7045C116.571 16.7045 116.214 16.7898 115.899 16.9602C115.589 17.1269 115.342 17.3598 115.161 17.6591C114.979 17.9545 114.888 18.2917 114.888 18.6705V24H113.189ZM125.869 17.4034L124.33 17.6761C124.265 17.4792 124.163 17.2917 124.023 17.1136C123.886 16.9356 123.701 16.7898 123.466 16.6761C123.231 16.5625 122.938 16.5057 122.585 16.5057C122.104 16.5057 121.703 16.6136 121.381 16.8295C121.059 17.0417 120.898 17.3163 120.898 17.6534C120.898 17.9451 121.006 18.1799 121.222 18.358C121.438 18.536 121.786 18.6818 122.267 18.7955L123.653 19.1136C124.456 19.2992 125.055 19.5852 125.449 19.9716C125.843 20.358 126.04 20.8598 126.04 21.4773C126.04 22 125.888 22.4659 125.585 22.875C125.286 23.2803 124.867 23.5985 124.33 23.8295C123.795 24.0606 123.176 24.1761 122.472 24.1761C121.494 24.1761 120.697 23.9678 120.08 23.5511C119.462 23.1307 119.083 22.5341 118.943 21.7614L120.585 21.5114C120.688 21.9394 120.898 22.2633 121.216 22.483C121.534 22.6989 121.949 22.8068 122.46 22.8068C123.017 22.8068 123.462 22.6913 123.795 22.4602C124.129 22.2254 124.295 21.9394 124.295 21.6023C124.295 21.3295 124.193 21.1004 123.989 20.9148C123.788 20.7292 123.479 20.589 123.062 20.4943L121.585 20.1705C120.771 19.9848 120.169 19.6894 119.778 19.2841C119.392 18.8788 119.199 18.3655 119.199 17.7443C119.199 17.2292 119.343 16.7784 119.631 16.392C119.919 16.0057 120.316 15.7045 120.824 15.4886C121.331 15.2689 121.913 15.1591 122.568 15.1591C123.511 15.1591 124.254 15.3636 124.795 15.7727C125.337 16.178 125.695 16.7216 125.869 17.4034Z" fill="#101319"/>
<defs>
<linearGradient id="paint0_linear_0_559" x1="0" y1="18" x2="137" y2="18" gradientUnits="userSpaceOnUse">
<stop stop-color="#D1D8E0"/>
<stop offset="0.5" stop-color="#D1D8E0"/>
<stop offset="1" stop-color="#FF881F"/>
</linearGradient>
</defs>
</svg>
